<?xml version="1.0" encoding="utf-8"?>
<svg xmlns:xlink="http://www.w3.org/1999/xlink" xmlns="http://www.w3.org/2000/svg" viewBox="0 0 512 512">
  <radialGradient id="1" cx="256" cy="256" r="256" gradientUnits="userSpaceOnUse">
    <stop offset="0" stop-color="#f5f5f5" />
    <stop offset=".5" stop-color="#f7e47b" stop-opacity=".95" />
    <stop offset=".9" stop-color="#518a2c" stop-opacity=".9" />
    <stop offset="1" stop-color="#376618" />
  </radialGradient>
  <path fill="url(#1)"
    d="M55.26 244.71C36.62 157.09 16.29 72.54 0 3.36c35.58 92.05 71.16 184.1 106.48 272.65-18.91-11.65-33.22-21.52-51.23-31.29zm167.64-28.45c-47.46 100.88-58.8 101.04-161.78 48.45 77.16 91.49 92.8 122.13 140.49 68.43-27.36 138.24-86.27 7.95-86.27 7.95-23.07-22.82-34.54-30.38-61.39-53.15 39.36 92 70.62 190.04 89.56 211.79 35.69 40.99 74.11-34.29 93.33-129.43 1.04-5.09 9.48-57.16 10.3-61.83l6.91-38.65 3.39-23.18c9.2-33.85-17.91-65.74-34.54-30.38zm31.91-36.42c24.73 1.59 46.21-17.28 47.8-42.02 1.59-24.73-17.28-46.2-42.02-47.8-24.73-1.59-46.2 17.28-47.8 42.02-1.59 24.73 17.28 46.21 42.01 47.8zm210.08 62.89C480.58 154.64 498.05 69.58 512.01 0c-32.47 92.97-64.94 185.94-97.27 275.39 18.51-12.16 32.49-22.41 50.15-32.66zm-202.02 7.38l4.17 23.08 8.21 38.44c.98 4.64 11.17 56.46 12.38 61.52 22.41 94.58 63.34 168.79 97.64 126.86 18.2-22.25 46.15-121.08 82.4-214.1-26.07 23.48-37.29 31.35-59.58 54.78 0 0-54.5 131.82-86.5-5.62 49.47 52.39 64.07 21.35 138.13-72.18-101.16 55.34-112.51 55.49-163.34-44.07-17.82-34.9-43.84-2.29-33.51 31.3z" />
</svg>